# xmcd
#
# Track frame offsets:
#	150
#	18138
#	32767
#	46309
#	62192
#	80138
#	97358
#	116916
#	133385
#	156142
#	173482
#	189239
#	205455
#	226927
#	243672
#	261643
#	282461
#	297301
#
# Disc length: 4134 seconds
#
# Revision: 1
# Processed by: cddbd v1.5.1PL2 Copyright (c) Steve Scherf et al.
# Submitted via: audiograbber 1.83.01
#
DISCID=18102412
DTITLE=Various Artist - BMG
DYEAR=1900
DGENRE=
TTITLE0=Lonestar - Amazed
TTITLE1=Andrews, Jessica - You go first
TTITLE2=the Lynns - Shoes
TTITLE3=Lonestar - Smile
TTITLE4=McCready, Mindy - Over and over
TTITLE5=Dixie Chicks - Ready to run
TTITLE6=Brooks, Garth and Chris Gaines - It don't matter to the sun
TTITLE7=McCoy, Neil - The strongest man in the world
TTITLE8=Walker, Clay - Chain of love
TTITLE9=Chesney, Kenny - California
TTITLE10=Harms, Joni - When I get over you
TTITLE11=Herndon, Ty - Steam
TTITLE12=Dixie Chicks - Cowboy take me away
TTITLE13=Eakes, Bobby - Only when
TTITLE14=Eakes, Bobby - While you were out
TTITLE15=McGraw, Tim - My best friend
TTITLE16=McGraw, Tim - Seventeen
TTITLE17=Tennison, Chalee - Handful of water
EXTD=
EXTT0=
EXTT1=
EXTT2=
EXTT3=
EXTT4=
EXTT5=
EXTT6=
EXTT7=
EXTT8=
EXTT9=
EXTT10=
EXTT11=
EXTT12=
EXTT13=
EXTT14=
EXTT15=
EXTT16=
EXTT17=
PLAYORDER=
